HIERARCHY
ROOT Hips
{
	OFFSET 0.00000 0.00000 0.00000
	CHANNELS 6 Xposition Yposition Zposition Zrotation Yrotation Xrotation 
	JOINT LHipJoint
	{
		OFFSET 0 0 0
		CHANNELS 3 Zrotation Yrotation Xrotation
		JOINT LeftHip
		{
			OFFSET 2.36090 -1.39315 1.24752
			CHANNELS 3 Zrotation Yrotation Xrotation
			JOINT LeftKnee
			{
				OFFSET 2.06810 -5.68207 0.00000
				CHANNELS 3 Zrotation Yrotation Xrotation
				JOINT LeftAnkle
				{
					OFFSET 2.46631 -6.77613 0.00000
					CHANNELS 3 Zrotation Yrotation Xrotation
					JOINT LeftToe
					{
						OFFSET 0.26031 -0.71520 1.99545
						CHANNELS 3 Zrotation Yrotation Xrotation
						End Site
						{
							OFFSET 0.00000 -0.00000 1.05957
						}
					}
				}
			}
		}
	}
	JOINT RHipJoint
	{
		OFFSET 0 0 0
		CHANNELS 3 Zrotation Yrotation Xrotation
		JOINT RightHip
		{
			OFFSET -2.25243 -1.39315 1.24752
			CHANNELS 3 Zrotation Yrotation Xrotation
			JOINT RightKnee
			{
				OFFSET -2.17343 -5.97145 0.00000
				CHANNELS 3 Zrotation Yrotation Xrotation
				JOINT RightAnkle
				{
					OFFSET -2.52372 -6.93386 0.00000
					CHANNELS 3 Zrotation Yrotation Xrotation
					JOINT RightToe
					{
						OFFSET -0.22538 -0.61923 2.11447
						CHANNELS 3 Zrotation Yrotation Xrotation
						End Site
						{
							OFFSET -0.00000 -0.00000 1.10506
						}
					}
				}
			}
		}
	}
	JOINT lowerback
	{
		OFFSET 0 0 0
		CHANNELS 3 Zrotation Yrotation Xrotation
		JOINT Chest
		{
			OFFSET 0.01594 2.13103 0.08007
			CHANNELS 3 Zrotation Yrotation Xrotation
			JOINT Chest2
			{
				OFFSET 0.01393 2.09723 0.18338
				CHANNELS 3 Zrotation Yrotation Xrotation
				JOINT lowerneck
				{
					OFFSET 0 0 0
					CHANNELS 3 Zrotation Yrotation Xrotation
					JOINT Neck
					{
						OFFSET 0.05351 1.38915 0.32494
						CHANNELS 3 Zrotation Yrotation Xrotation
						JOINT Head
						{
							OFFSET 0.00711 1.45992 -0.21666
							CHANNELS 3 Zrotation Yrotation Xrotation
							End Site
							{
								OFFSET -0.00433 1.47702 -0.11056
							}
						}
					}
				}
				JOINT LeftCollar
				{
					OFFSET 0 0 0
					CHANNELS 3 Zrotation Yrotation Xrotation
					JOINT LeftShoulder
					{
						OFFSET 2.87198 0.92249 0.11132
CHANNELS 3 Zrotation Xrotation Yrotation
						JOINT LeftElbow
						{
OFFSET 0 -5.527310 0.000000
CHANNELS 3 Zrotation Xrotation Yrotation
							JOINT LeftWrist
							{
OFFSET 0 -3.110590 0.000000
CHANNELS 3 Zrotation Xrotation Yrotation
								JOINT lhand
								{
									OFFSET 0 0 0
CHANNELS 3 Zrotation Xrotation Yrotation
									JOINT LFingers
									{
OFFSET 0 -0.419630 0.000000
CHANNELS 3 Zrotation Xrotation Yrotation
										End Site
										{
OFFSET 0 -0.338310 0.000000
										}
									}
								}
								JOINT LThumb
								{
OFFSET 0 0.000000 0.000000
CHANNELS 3 Zrotation Xrotation Yrotation
									End Site
									{
OFFSET 0 -0.343480 0.343480
									}
								}
							}
						}
					}
				}
				JOINT RightCollar
				{
					OFFSET 0 0 0
					CHANNELS 3 Zrotation Yrotation Xrotation
					JOINT RightShoulder
					{
						OFFSET -2.94710 0.68072 0.32187
CHANNELS 3 Zrotation Xrotation Yrotation
						JOINT RightElbow
						{
OFFSET 0 -5.253960 -0.000000
CHANNELS 3 Zrotation Xrotation Yrotation
							JOINT RightWrist
							{
OFFSET 0 -3.105670 0.000000
CHANNELS 3 Zrotation Xrotation Yrotation
								JOINT rhand
								{
									OFFSET 0 0 0
CHANNELS 3 Zrotation Xrotation Yrotation
									JOINT RFingers
									{
OFFSET 0 -0.498680 0.000000
CHANNELS 3 Zrotation Xrotation Yrotation
										End Site
										{
OFFSET 0 -0.402040 0.000000
										}
									}
								}
								JOINT RThumb
								{
OFFSET 0 0.000000 0.000000
CHANNELS 3 Zrotation Xrotation Yrotation
									End Site
									{
OFFSET 0 -0.408180 0.408180
									}
								}
							}
						}
					}
				}
			}
		}
	}
}
MOTION
Frames: 11
Frame Time: 0.008333333333333333
8.760445 15.800124 -29.072159 330.439269 -73.821569 48.730775 0.000000 0.000000 0.000000 -8.455279 -22.671227 -50.983930 1.952348 8.765879 25.065842 -0.000448 2.591077 1.752945 1.226822 -7.009780 -19.750605 0.000000 0.000000 0.000000 33.353505 9.877247 -5.383691 -1.199555 -6.949126 19.564706 -0.553041 -4.547167 -16.443724 -2.913325 10.552858 -30.786865 7.623944 3.642954 -14.203588 0.064225 3.549610 -7.213142 -3.690568 1.461480 0.754004 14.161394 11.154622 -19.885970 -8.130081 13.355375 22.516445 -3.024290 6.216744 12.270294 0.000000 0.000000 0.000000 10.017281 8.933432 -30.406949 15.426936 -24.737355 3.402658 14.642760 -38.761742 3.962360 0.000000 0.000000 0.000000 -7.125000 0.000000 0.000000 -9.048117 25.869713 -4.243433 0.000000 0.000000 0.000000 -3.374056 2.116815 14.866964 -15.011534 -24.162174 -3.230667 -13.371420 -2.126333 13.358762 0.000000 0.000000 0.000000 7.125000 0.000000 0.000000 12.718002 43.329833 0.534281
8.372814 15.815748 -28.990665 331.849110 -74.296769 47.538550 0.000000 0.000000 0.000000 -8.808567 -23.839863 -50.028957 2.102989 9.077135 26.037076 0.020820 3.536217 3.360386 0.404949 -4.055438 -11.236718 0.000000 0.000000 0.000000 32.772156 9.464947 -5.095853 -1.367383 -7.399290 20.904658 -0.478169 -4.122659 -15.225821 -3.282878 11.138918 -32.750393 5.682520 3.476001 -14.621045 -0.324267 3.547187 -7.477259 -3.001143 1.487414 0.628312 14.218554 11.177849 -19.890743 -7.739009 13.276433 22.834509 -2.901304 6.231858 12.358365 0.000000 0.000000 0.000000 9.808962 9.426718 -29.889701 14.857314 -23.946750 3.167921 15.971175 -39.337086 3.920900 0.000000 0.000000 0.000000 -7.125000 0.000000 0.000000 -8.051537 25.890291 -3.762922 0.000000 0.000000 0.000000 -3.082087 3.592212 15.362886 -14.716287 -23.749328 -3.110840 -11.572640 -1.785292 12.920146 0.000000 0.000000 0.000000 7.125000 0.000000 0.000000 14.186508 42.708889 0.820290
7.996200 15.827423 -28.905274 335.504073 -75.047684 43.785133 0.000000 0.000000 0.000000 -9.958798 -25.308149 -48.224592 2.227640 9.324886 26.817052 0.002399 4.302740 3.104267 0.094290 -1.974762 -5.436122 0.000000 0.000000 0.000000 31.454351 8.878515 -6.380878 -1.978536 -8.815500 25.223730 -0.430186 -3.453060 -14.141183 -3.691483 11.737670 -34.810721 3.016450 2.992126 -14.468080 -0.683075 3.258503 -7.678886 -1.939317 1.394936 0.204019 14.066857 11.262437 -19.934518 -7.250655 13.322980 23.221746 -2.682389 6.295207 12.472293 0.000000 0.000000 0.000000 9.476629 9.950361 -29.579742 14.141736 -22.936694 2.883259 17.220562 -40.588565 3.749243 0.000000 0.000000 0.000000 -7.125000 0.000000 0.000000 -7.118387 26.045022 -3.294001 0.000000 0.000000 0.000000 -3.080453 4.791655 15.765086 -14.112123 -22.894567 -2.871713 -10.689591 -0.695082 12.613198 0.000000 0.000000 0.000000 7.125000 0.000000 0.000000 14.874614 42.319260 1.008294
7.640868 15.834510 -28.821028 341.662232 -75.708663 37.294492 0.000000 0.000000 0.000000 -12.384207 -26.196026 -45.729988 2.266752 9.400923 27.057651 -0.019084 4.272542 2.165921 0.040239 -1.291988 -3.552599 0.000000 0.000000 0.000000 29.412304 7.582819 -9.509617 -3.181153 -10.975053 32.204135 -0.350421 -2.091596 -12.142917 -3.948743 12.091794 -36.057622 -0.000722 2.386202 -13.740673 -1.184159 2.838504 -7.813251 -0.860837 1.259558 -0.460286 13.913502 11.322680 -20.070158 -6.711018 13.302079 23.579052 -2.452682 6.333495 12.580313 0.000000 0.000000 0.000000 9.219302 10.192891 -28.933267 13.249277 -21.650992 2.544722 18.251563 -41.296833 3.524543 0.000000 0.000000 0.000000 -7.125000 0.000000 0.000000 -6.348734 26.259974 -2.901399 0.000000 0.000000 0.000000 -3.019841 5.785487 15.539282 -13.396973 -21.865884 -2.599358 -10.329747 0.931486 12.508080 0.000000 0.000000 0.000000 7.125000 0.000000 0.000000 15.158757 42.181148 1.081475
7.306092 15.839089 -28.729655 348.620107 -75.762591 30.066422 0.000000 0.000000 0.000000 -15.300869 -26.408956 -43.179088 2.212365 9.295023 26.722579 -0.021073 3.522133 1.277823 0.013656 -0.752670 -2.068639 0.000000 0.000000 0.000000 27.105554 5.938548 -13.978872 -4.907961 -13.273645 40.411810 -0.155284 -0.930205 -7.811600 -3.453690 11.393011 -33.620112 -2.653745 1.753899 -12.847284 -1.680775 2.271705 -7.934116 0.006062 1.054805 -1.168140 13.656224 11.338410 -20.098571 -6.268303 13.278050 23.644167 -2.250483 6.354885 12.550600 0.000000 0.000000 0.000000 8.988534 10.239940 -28.070463 12.386222 -20.381115 2.235117 18.675341 -41.059949 2.862398 0.000000 0.000000 0.000000 -7.125000 0.000000 0.000000 -6.055046 26.946673 -2.667652 0.000000 0.000000 0.000000 -3.030611 6.704662 14.974957 -12.826900 -21.032998 -2.390861 -10.182662 2.557635 12.769298 0.000000 0.000000 0.000000 7.125000 0.000000 0.000000 15.359579 42.421740 1.002819
6.982057 15.852206 -28.635499 353.181068 -75.722746 25.262428 0.000000 0.000000 0.000000 -17.961232 -25.516855 -40.977189 2.150484 9.172668 26.337099 -0.012226 2.203099 0.266510 0.005055 -0.457854 -1.258181 0.000000 0.000000 0.000000 25.053525 5.087795 -18.470698 -6.812344 -15.169023 48.156013 0.002010 -1.417218 -1.496190 -1.955729 8.763356 -25.064497 -4.634565 1.304170 -12.070616 -1.894509 1.825684 -8.026147 0.819094 0.905637 -1.750761 13.193829 11.338878 -19.952805 -6.060363 13.386271 23.546150 -2.090117 6.392291 12.438940 0.000000 0.000000 0.000000 8.559331 10.250323 -27.121777 11.820276 -19.534535 2.041811 18.789771 -40.005305 1.726213 0.000000 0.000000 0.000000 -7.125000 0.000000 0.000000 -6.021354 28.138335 -2.482628 0.000000 0.000000 0.000000 -3.404839 7.566294 14.642853 -12.556553 -20.633944 -2.294683 -10.117619 3.504415 13.299910 0.000000 0.000000 0.000000 7.125000 0.000000 0.000000 15.568131 42.932374 0.815593
6.670041 15.879555 -28.537150 355.523698 -75.824847 22.557886 0.000000 0.000000 0.000000 -20.043402 -24.108774 -38.969718 2.111322 9.094066 26.090122 -0.001407 0.887624 -0.945351 0.000384 -0.128669 -0.353534 0.000000 0.000000 0.000000 23.386835 5.228261 -22.366987 -8.602419 -16.543897 54.703134 -0.037588 -1.984482 3.494385 -0.915628 6.094465 -17.059633 -6.046258 1.032804 -11.366640 -1.786062 1.546557 -8.041838 1.675104 0.835197 -2.197379 12.513957 11.386257 -19.751575 -6.127539 13.727763 23.562858 -1.957204 6.478266 12.390331 0.000000 0.000000 0.000000 7.986445 10.154133 -26.984478 11.552978 -19.130782 1.953336 18.994482 -39.199171 0.946182 0.000000 0.000000 0.000000 -7.125000 0.000000 0.000000 -5.904382 28.957627 -2.318695 0.000000 0.000000 0.000000 -4.229440 8.223807 14.813316 -12.523254 -20.584685 -2.282885 -10.006901 3.527827 13.881400 0.000000 0.000000 0.000000 7.125000 0.000000 0.000000 15.837297 43.486898 0.607607
6.376397 15.907499 -28.432203 356.993162 -75.769250 20.636472 0.000000 0.000000 0.000000 -21.663124 -22.960561 -36.978371 2.082803 9.036507 25.909649 0.013735 -0.137568 -2.166603 0.000993 0.201651 0.553994 0.000000 0.000000 0.000000 21.958798 5.898752 -25.900653 -10.224868 -17.534254 60.237062 -0.040341 -2.147565 3.648713 -0.753818 5.545461 -15.471074 -6.678613 0.925100 -10.664133 -1.866967 1.408626 -7.983086 1.916867 0.801089 -2.530867 12.300750 11.433336 -19.565974 -6.371460 13.976791 23.813683 -1.974793 6.537431 12.482585 0.000000 0.000000 0.000000 8.038394 9.829167 -28.145691 11.535748 -19.104770 1.947651 18.881492 -38.751791 0.850657 0.000000 0.000000 0.000000 -7.125000 0.000000 0.000000 -5.997834 29.058042 -2.341349 0.000000 0.000000 0.000000 -4.722226 8.536268 15.089408 -12.550569 -20.625107 -2.292554 -9.873577 3.075708 14.217474 0.000000 0.000000 0.000000 7.125000 0.000000 0.000000 16.057101 43.799028 0.489198
6.097045 15.927787 -28.328785 358.323726 -75.459506 18.787580 0.000000 0.000000 0.000000 -23.046496 -22.259201 -34.877490 2.053542 8.976663 25.722492 0.034527 -0.816315 -3.316618 0.002600 0.327462 0.899821 0.000000 0.000000 0.000000 20.628080 6.786302 -29.390323 -11.606420 -18.218970 64.735368 0.013700 -2.927264 1.125723 -0.740407 5.496783 -15.330952 -6.734908 0.872321 -9.985487 -2.203906 1.302486 -7.807414 1.578887 0.747602 -2.698131 12.377220 11.510370 -19.453377 -6.510054 14.141403 24.196536 -2.007958 6.593797 12.650126 0.000000 0.000000 0.000000 8.731597 9.068300 -30.137702 11.644310 -19.269142 1.983330 17.715961 -37.905224 0.473693 0.000000 0.000000 0.000000 -7.125000 0.000000 0.000000 -6.930052 29.449355 -2.644908 0.000000 0.000000 0.000000 -4.790378 8.453874 15.569748 -12.611512 -20.715364 -2.314080 -10.113922 2.497257 14.257618 0.000000 0.000000 0.000000 7.125000 0.000000 0.000000 15.857319 43.864105 0.456585
5.826022 15.931492 -28.234898 359.897109 -74.810880 16.691946 0.000000 0.000000 0.000000 -24.348782 -21.878807 -32.874158 2.056245 8.982286 25.739914 0.062128 -1.493353 -4.424387 0.004278 0.421696 1.158648 0.000000 0.000000 0.000000 19.271411 7.797139 -32.789619 -12.639453 -18.647923 68.001616 0.039642 -3.545364 -1.551855 -0.681813 5.278584 -14.704975 -6.770300 0.701013 -9.383661 -2.491433 1.053910 -7.522950 1.277148 0.618742 -2.700658 12.494219 11.645495 -19.270420 -6.694074 14.396964 24.526506 -2.049510 6.690120 12.802081 0.000000 0.000000 0.000000 9.524783 7.871797 -32.454424 11.851593 -19.581769 2.052263 16.487676 -37.054496 0.581910 0.000000 0.000000 0.000000 -7.125000 0.000000 0.000000 -7.879224 29.330903 -3.035574 0.000000 0.000000 0.000000 -4.894750 8.134822 16.344599 -12.797558 -20.989882 -2.380320 -10.962703 1.991082 14.093716 0.000000 0.000000 0.000000 7.125000 0.000000 0.000000 15.057635 43.796847 0.458036
5.554128 15.919863 -28.151144 360.631509 -73.847388 15.448674 0.000000 0.000000 0.000000 -25.234430 -21.775182 -31.231820 2.145086 9.161881 26.303056 0.101483 -2.210567 -5.656247 0.009057 0.614856 1.689673 0.000000 0.000000 0.000000 18.132803 9.050484 -35.759401 -13.205520 -18.855054 69.762428 0.028239 -4.050179 -4.370915 -0.490154 4.488727 -12.455884 -6.819276 0.476633 -8.948063 -2.512835 0.762246 -7.183993 1.262428 0.473528 -2.559273 12.494300 11.803878 -19.023895 -7.013103 14.773622 24.818443 -2.103859 6.813094 12.943686 0.000000 0.000000 0.000000 9.995253 6.430200 -34.670978 12.191924 -20.091797 2.167835 16.303611 -36.459513 1.733459 0.000000 0.000000 0.000000 -7.125000 0.000000 0.000000 -7.936448 28.141582 -3.283770 0.000000 0.000000 0.000000 -5.226925 7.874905 16.948112 -13.190404 -21.565446 -2.522922 -12.241102 1.707421 13.703832 0.000000 0.000000 0.000000 7.125000 0.000000 0.000000 13.813467 43.551461 0.503878
